# xmcd
#
# Track frame offsets: 
#        150
#        11389
#        23673
#        36338
#        49796
#        61384
#        71692
#        81420
#        92224
#        104638
#        117549
#        130886
#        141039
#        154784
#        169287
#
# Disc length: 2430 seconds
#
# Revision: 0
# Processed by: cddbd v1.5.2PL0 Copyright (c) Steve Scherf et al.
# Submitted via: ExactAudioCopyFreeDBPlugin 1.0
#
DISCID=d3097c0f
DTITLE=Lil' Linn And The Lookout Boys - Sharpshooting Gal
DYEAR=2009
DGENRE=Country
TTITLE0=Sharpshooting Gal
TTITLE1=My Heart Gets Lonely
TTITLE2=Mamas Little Dogies
TTITLE3=Something About That Man
TTITLE4=Twice The Loving
TTITLE5=All I See In You
TTITLE6=Get Out And Stay Gone
TTITLE7=Wornout Loveaffair
TTITLE8=Open Road
TTITLE9=Jack I'm Mellow
TTITLE10=Strangers Or Sweethearts
TTITLE11=You Doggone Son Of A Gun
TTITLE12=My Happy Days Will Come
TTITLE13=I'll Never Be Free
TTITLE14=Watchdog
EXTD=
EXTT0=
EXTT1=
EXTT2=
EXTT3=
EXTT4=
EXTT5=
EXTT6=
EXTT7=
EXTT8=
EXTT9=
EXTT10=
EXTT11=
EXTT12=
EXTT13=
EXTT14=
PLAYORDER=
